<?xml version="1.0" encoding="utf-8" standalone="no"?>
<!DOCTYPE svg PUBLIC "-//W3C//DTD SVG 1.1//EN"
  "http://www.w3.org/Graphics/SVG/1.1/DTD/svg11.dtd">
<svg xmlns:xlink="http://www.w3.org/1999/xlink" width="399.421062pt" height="322.581344pt" viewBox="0 0 399.421062 322.581344" xmlns="http://www.w3.org/2000/svg" version="1.1">
 <metadata>
  <rdf:RDF xmlns:dc="http://purl.org/dc/elements/1.1/" xmlns:cc="http://creativecommons.org/ns#" xmlns:rdf="http://www.w3.org/1999/02/22-rdf-syntax-ns#">
   <cc:Work>
    <dc:type rdf:resource="http://purl.org/dc/dcmitype/StillImage"/>
    <dc:date>2026-07-13T15:09:25.905753</dc:date>
    <dc:format>image/svg+xml</dc:format>
    <dc:creator>
     <cc:Agent>
      <dc:title>Matplotlib v3.10.0, https://matplotlib.org/</dc:title>
     </cc:Agent>
    </dc:creator>
   </cc:Work>
  </rdf:RDF>
 </metadata>
 <defs>
  <style type="text/css">*{stroke-linejoin: round; stroke-linecap: butt}</style>
 </defs>
 <g id="figure_1">
  <g id="patch_1">
   <path d="M 0 322.581344 
L 399.421062 322.581344 
L 399.421062 0 
L 0 0 
L 0 322.581344 
z
" style="fill: none"/>
  </g>
  <g id="axes_1">
   <g id="patch_2">
    <path d="M 53.281063 282.016656 
L 393.661062 282.016656 
L 393.661062 26.992656 
L 53.281063 26.992656 
L 53.281063 282.016656 
z
" style="fill: none"/>
   </g>
   <g id="line2d_1">
    <path d="M 53.281063 136.288656 
L 393.661062 136.288656 
" clip-path="url(#p2ce15eee57)" style="fill: none; stroke: #d9d9d9; stroke-width: 1.2; stroke-linecap: square"/>
   </g>
   <g id="matplotlib.axis_1">
    <g id="xtick_1">
     <g id="line2d_2"/>
     <g id="text_1">
      <!-- −2 -->
      <g style="fill: #54585a" transform="translate(61.911943 294.212906) scale(0.12 -0.12)">
       <defs>
        <path id="LiberationSans-2212" d="M 316 1900 
L 316 2356 
L 3425 2356 
L 3425 1900 
L 316 1900 
z
" transform="scale(0.015625)"/>
        <path id="LiberationSans-32" d="M 322 0 
L 322 397 
Q 481 763 711 1042 
Q 941 1322 1194 1548 
Q 1447 1775 1695 1969 
Q 1944 2163 2144 2356 
Q 2344 2550 2467 2762 
Q 2591 2975 2591 3244 
Q 2591 3606 2378 3806 
Q 2166 4006 1788 4006 
Q 1428 4006 1195 3811 
Q 963 3616 922 3263 
L 347 3316 
Q 409 3844 795 4156 
Q 1181 4469 1788 4469 
Q 2453 4469 2811 4155 
Q 3169 3841 3169 3263 
Q 3169 3006 3051 2753 
Q 2934 2500 2703 2247 
Q 2472 1994 1819 1463 
Q 1459 1169 1246 933 
Q 1034 697 941 478 
L 3238 478 
L 3238 0 
L 322 0 
z
" transform="scale(0.015625)"/>
       </defs>
       <use xlink:href="#LiberationSans-2212"/>
       <use xlink:href="#LiberationSans-32" transform="translate(58.398438 0)"/>
      </g>
     </g>
    </g>
    <g id="xtick_2">
     <g id="line2d_3"/>
     <g id="text_2">
      <!-- −1 -->
      <g style="fill: #54585a" transform="translate(139.271034 294.212906) scale(0.12 -0.12)">
       <defs>
        <path id="LiberationSans-31" d="M 488 0 
L 488 478 
L 1609 478 
L 1609 3866 
L 616 3156 
L 616 3688 
L 1656 4403 
L 2175 4403 
L 2175 478 
L 3247 478 
L 3247 0 
L 488 0 
z
" transform="scale(0.015625)"/>
       </defs>
       <use xlink:href="#LiberationSans-2212"/>
       <use xlink:href="#LiberationSans-31" transform="translate(58.398438 0)"/>
      </g>
     </g>
    </g>
    <g id="xtick_3">
     <g id="line2d_4"/>
     <g id="text_3">
      <!-- the truth -->
      <g style="fill: #54585a" transform="translate(201.4595 294.212906) scale(0.12 -0.12)">
       <defs>
        <path id="LiberationSans-74" d="M 1731 25 
Q 1453 -50 1163 -50 
Q 488 -50 488 716 
L 488 2972 
L 97 2972 
L 97 3381 
L 509 3381 
L 675 4138 
L 1050 4138 
L 1050 3381 
L 1675 3381 
L 1675 2972 
L 1050 2972 
L 1050 838 
Q 1050 594 1129 495 
Q 1209 397 1406 397 
Q 1519 397 1731 441 
L 1731 25 
z
" transform="scale(0.015625)"/>
        <path id="LiberationSans-68" d="M 991 2803 
Q 1172 3134 1426 3289 
Q 1681 3444 2072 3444 
Q 2622 3444 2883 3170 
Q 3144 2897 3144 2253 
L 3144 0 
L 2578 0 
L 2578 2144 
Q 2578 2500 2512 2673 
Q 2447 2847 2297 2928 
Q 2147 3009 1881 3009 
Q 1484 3009 1245 2734 
Q 1006 2459 1006 1994 
L 1006 0 
L 444 0 
L 444 4638 
L 1006 4638 
L 1006 3431 
Q 1006 3241 995 3037 
Q 984 2834 981 2803 
L 991 2803 
z
" transform="scale(0.015625)"/>
        <path id="LiberationSans-65" d="M 863 1572 
Q 863 991 1103 675 
Q 1344 359 1806 359 
Q 2172 359 2392 506 
Q 2613 653 2691 878 
L 3184 738 
Q 2881 -63 1806 -63 
Q 1056 -63 664 384 
Q 272 831 272 1713 
Q 272 2550 664 2997 
Q 1056 3444 1784 3444 
Q 3275 3444 3275 1647 
L 3275 1572 
L 863 1572 
z
M 2694 2003 
Q 2647 2538 2422 2783 
Q 2197 3028 1775 3028 
Q 1366 3028 1127 2754 
Q 888 2481 869 2003 
L 2694 2003 
z
" transform="scale(0.015625)"/>
        <path id="LiberationSans-20" transform="scale(0.015625)"/>
        <path id="LiberationSans-72" d="M 444 0 
L 444 2594 
Q 444 2950 425 3381 
L 956 3381 
Q 981 2806 981 2691 
L 994 2691 
Q 1128 3125 1303 3284 
Q 1478 3444 1797 3444 
Q 1909 3444 2025 3413 
L 2025 2897 
Q 1913 2928 1725 2928 
Q 1375 2928 1190 2626 
Q 1006 2325 1006 1763 
L 1006 0 
L 444 0 
z
" transform="scale(0.015625)"/>
        <path id="LiberationSans-75" d="M 981 3381 
L 981 1238 
Q 981 903 1047 718 
Q 1113 534 1256 453 
Q 1400 372 1678 372 
Q 2084 372 2318 650 
Q 2553 928 2553 1422 
L 2553 3381 
L 3116 3381 
L 3116 722 
Q 3116 131 3134 0 
L 2603 0 
Q 2600 16 2597 84 
Q 2594 153 2589 242 
Q 2584 331 2578 578 
L 2569 578 
Q 2375 228 2120 82 
Q 1866 -63 1488 -63 
Q 931 -63 673 214 
Q 416 491 416 1128 
L 416 3381 
L 981 3381 
z
" transform="scale(0.015625)"/>
       </defs>
       <use xlink:href="#LiberationSans-74"/>
       <use xlink:href="#LiberationSans-68" transform="translate(27.783203 0)"/>
       <use xlink:href="#LiberationSans-65" transform="translate(83.398438 0)"/>
       <use xlink:href="#LiberationSans-20" transform="translate(139.013672 0)"/>
       <use xlink:href="#LiberationSans-74" transform="translate(166.796875 0)"/>
       <use xlink:href="#LiberationSans-72" transform="translate(194.580078 0)"/>
       <use xlink:href="#LiberationSans-75" transform="translate(227.880859 0)"/>
       <use xlink:href="#LiberationSans-74" transform="translate(283.496094 0)"/>
       <use xlink:href="#LiberationSans-68" transform="translate(311.279297 0)"/>
      </g>
     </g>
    </g>
    <g id="xtick_4">
     <g id="line2d_5"/>
     <g id="text_4">
      <!-- +1 -->
      <g style="fill: #54585a" transform="translate(293.989216 294.212906) scale(0.12 -0.12)">
       <defs>
        <path id="LiberationSans-2b" d="M 2097 1900 
L 2097 563 
L 1638 563 
L 1638 1900 
L 313 1900 
L 313 2356 
L 1638 2356 
L 1638 3694 
L 2097 3694 
L 2097 2356 
L 3422 2356 
L 3422 1900 
L 2097 1900 
z
" transform="scale(0.015625)"/>
       </defs>
       <use xlink:href="#LiberationSans-2b"/>
       <use xlink:href="#LiberationSans-31" transform="translate(58.398438 0)"/>
      </g>
     </g>
    </g>
    <g id="xtick_5">
     <g id="line2d_6"/>
     <g id="text_5">
      <!-- +2 -->
      <g style="fill: #54585a" transform="translate(371.348307 294.212906) scale(0.12 -0.12)">
       <use xlink:href="#LiberationSans-2b"/>
       <use xlink:href="#LiberationSans-32" transform="translate(58.398438 0)"/>
      </g>
     </g>
    </g>
    <g id="text_6">
     <!-- how wrong our instruction was -->
     <g style="fill: #2a2d2e" transform="translate(136.047078 314.123844) scale(0.13 -0.13)">
      <defs>
       <path id="LiberationSans-6f" d="M 3291 1694 
Q 3291 806 2900 371 
Q 2509 -63 1766 -63 
Q 1025 -63 647 389 
Q 269 841 269 1694 
Q 269 3444 1784 3444 
Q 2559 3444 2925 3017 
Q 3291 2591 3291 1694 
z
M 2700 1694 
Q 2700 2394 2492 2711 
Q 2284 3028 1794 3028 
Q 1300 3028 1079 2704 
Q 859 2381 859 1694 
Q 859 1025 1076 689 
Q 1294 353 1759 353 
Q 2266 353 2483 678 
Q 2700 1003 2700 1694 
z
" transform="scale(0.015625)"/>
       <path id="LiberationSans-77" d="M 3669 0 
L 3016 0 
L 2425 2391 
L 2313 2919 
Q 2284 2778 2225 2514 
Q 2166 2250 1588 0 
L 938 0 
L -9 3381 
L 547 3381 
L 1119 1084 
Q 1141 1009 1253 466 
L 1306 697 
L 2013 3381 
L 2616 3381 
L 3206 1059 
L 3350 466 
L 3447 900 
L 4088 3381 
L 4638 3381 
L 3669 0 
z
" transform="scale(0.015625)"/>
       <path id="LiberationSans-6e" d="M 2578 0 
L 2578 2144 
Q 2578 2478 2512 2662 
Q 2447 2847 2303 2928 
Q 2159 3009 1881 3009 
Q 1475 3009 1240 2731 
Q 1006 2453 1006 1959 
L 1006 0 
L 444 0 
L 444 2659 
Q 444 3250 425 3381 
L 956 3381 
Q 959 3366 962 3297 
Q 966 3228 970 3139 
Q 975 3050 981 2803 
L 991 2803 
Q 1184 3153 1439 3298 
Q 1694 3444 2072 3444 
Q 2628 3444 2886 3167 
Q 3144 2891 3144 2253 
L 3144 0 
L 2578 0 
z
" transform="scale(0.015625)"/>
       <path id="LiberationSans-67" d="M 1713 -1328 
Q 1159 -1328 831 -1111 
Q 503 -894 409 -494 
L 975 -413 
Q 1031 -647 1223 -773 
Q 1416 -900 1728 -900 
Q 2569 -900 2569 84 
L 2569 628 
L 2563 628 
Q 2403 303 2125 139 
Q 1847 -25 1475 -25 
Q 853 -25 561 387 
Q 269 800 269 1684 
Q 269 2581 583 3007 
Q 897 3434 1538 3434 
Q 1897 3434 2161 3270 
Q 2425 3106 2569 2803 
L 2575 2803 
Q 2575 2897 2587 3128 
Q 2600 3359 2613 3381 
L 3147 3381 
Q 3128 3213 3128 2681 
L 3128 97 
Q 3128 -1328 1713 -1328 
z
M 2569 1691 
Q 2569 2103 2456 2401 
Q 2344 2700 2139 2858 
Q 1934 3016 1675 3016 
Q 1244 3016 1047 2703 
Q 850 2391 850 1691 
Q 850 997 1034 694 
Q 1219 391 1666 391 
Q 1931 391 2137 547 
Q 2344 703 2456 995 
Q 2569 1288 2569 1691 
z
" transform="scale(0.015625)"/>
       <path id="LiberationSans-69" d="M 428 4100 
L 428 4638 
L 991 4638 
L 991 4100 
L 428 4100 
z
M 428 0 
L 428 3381 
L 991 3381 
L 991 0 
L 428 0 
z
" transform="scale(0.015625)"/>
       <path id="LiberationSans-73" d="M 2969 934 
Q 2969 456 2608 196 
Q 2247 -63 1597 -63 
Q 966 -63 623 145 
Q 281 353 178 794 
L 675 891 
Q 747 619 972 492 
Q 1197 366 1597 366 
Q 2025 366 2223 497 
Q 2422 628 2422 891 
Q 2422 1091 2284 1216 
Q 2147 1341 1841 1422 
L 1438 1528 
Q 953 1653 748 1773 
Q 544 1894 428 2066 
Q 313 2238 313 2488 
Q 313 2950 642 3192 
Q 972 3434 1603 3434 
Q 2163 3434 2492 3237 
Q 2822 3041 2909 2606 
L 2403 2544 
Q 2356 2769 2151 2889 
Q 1947 3009 1603 3009 
Q 1222 3009 1040 2893 
Q 859 2778 859 2544 
Q 859 2400 934 2306 
Q 1009 2213 1156 2147 
Q 1303 2081 1775 1966 
Q 2222 1853 2419 1758 
Q 2616 1663 2730 1547 
Q 2844 1431 2906 1279 
Q 2969 1128 2969 934 
z
" transform="scale(0.015625)"/>
       <path id="LiberationSans-63" d="M 859 1706 
Q 859 1031 1071 706 
Q 1284 381 1713 381 
Q 2013 381 2214 543 
Q 2416 706 2463 1044 
L 3031 1006 
Q 2966 519 2616 228 
Q 2266 -63 1728 -63 
Q 1019 -63 645 385 
Q 272 834 272 1694 
Q 272 2547 647 2995 
Q 1022 3444 1722 3444 
Q 2241 3444 2583 3175 
Q 2925 2906 3013 2434 
L 2434 2391 
Q 2391 2672 2212 2837 
Q 2034 3003 1706 3003 
Q 1259 3003 1059 2706 
Q 859 2409 859 1706 
z
" transform="scale(0.015625)"/>
       <path id="LiberationSans-61" d="M 1294 -63 
Q 784 -63 528 206 
Q 272 475 272 944 
Q 272 1469 617 1750 
Q 963 2031 1731 2050 
L 2491 2063 
L 2491 2247 
Q 2491 2659 2316 2837 
Q 2141 3016 1766 3016 
Q 1388 3016 1216 2887 
Q 1044 2759 1009 2478 
L 422 2531 
Q 566 3444 1778 3444 
Q 2416 3444 2737 3151 
Q 3059 2859 3059 2306 
L 3059 850 
Q 3059 600 3125 473 
Q 3191 347 3375 347 
Q 3456 347 3559 369 
L 3559 19 
Q 3347 -31 3125 -31 
Q 2813 -31 2670 133 
Q 2528 297 2509 647 
L 2491 647 
Q 2275 259 1989 98 
Q 1703 -63 1294 -63 
z
M 1422 359 
Q 1731 359 1972 500 
Q 2213 641 2352 886 
Q 2491 1131 2491 1391 
L 2491 1669 
L 1875 1656 
Q 1478 1650 1273 1575 
Q 1069 1500 959 1344 
Q 850 1188 850 934 
Q 850 659 998 509 
Q 1147 359 1422 359 
z
" transform="scale(0.015625)"/>
      </defs>
      <use xlink:href="#LiberationSans-68"/>
      <use xlink:href="#LiberationSans-6f" transform="translate(55.615234 0)"/>
      <use xlink:href="#LiberationSans-77" transform="translate(111.230469 0)"/>
      <use xlink:href="#LiberationSans-20" transform="translate(183.447266 0)"/>
      <use xlink:href="#LiberationSans-77" transform="translate(211.230469 0)"/>
      <use xlink:href="#LiberationSans-72" transform="translate(283.447266 0)"/>
      <use xlink:href="#LiberationSans-6f" transform="translate(316.748047 0)"/>
      <use xlink:href="#LiberationSans-6e" transform="translate(372.363281 0)"/>
      <use xlink:href="#LiberationSans-67" transform="translate(427.978516 0)"/>
      <use xlink:href="#LiberationSans-20" transform="translate(483.59375 0)"/>
      <use xlink:href="#LiberationSans-6f" transform="translate(511.376953 0)"/>
      <use xlink:href="#LiberationSans-75" transform="translate(566.992188 0)"/>
      <use xlink:href="#LiberationSans-72" transform="translate(622.607422 0)"/>
      <use xlink:href="#LiberationSans-20" transform="translate(655.908203 0)"/>
      <use xlink:href="#LiberationSans-69" transform="translate(683.691406 0)"/>
      <use xlink:href="#LiberationSans-6e" transform="translate(705.908203 0)"/>
      <use xlink:href="#LiberationSans-73" transform="translate(761.523438 0)"/>
      <use xlink:href="#LiberationSans-74" transform="translate(811.523438 0)"/>
      <use xlink:href="#LiberationSans-72" transform="translate(839.306641 0)"/>
      <use xlink:href="#LiberationSans-75" transform="translate(872.607422 0)"/>
      <use xlink:href="#LiberationSans-63" transform="translate(928.222656 0)"/>
      <use xlink:href="#LiberationSans-74" transform="translate(978.222656 0)"/>
      <use xlink:href="#LiberationSans-69" transform="translate(1006.005859 0)"/>
      <use xlink:href="#LiberationSans-6f" transform="translate(1028.222656 0)"/>
      <use xlink:href="#LiberationSans-6e" transform="translate(1083.837891 0)"/>
      <use xlink:href="#LiberationSans-20" transform="translate(1139.453125 0)"/>
      <use xlink:href="#LiberationSans-77" transform="translate(1167.236328 0)"/>
      <use xlink:href="#LiberationSans-61" transform="translate(1239.453125 0)"/>
      <use xlink:href="#LiberationSans-73" transform="translate(1295.068359 0)"/>
     </g>
    </g>
   </g>
   <g id="matplotlib.axis_2">
    <g id="ytick_1">
     <g id="line2d_7"/>
     <g id="text_7">
      <!-- 0.0 -->
      <g style="fill: #54585a" transform="translate(35.881063 285.640094) scale(0.1 -0.1)">
       <defs>
        <path id="LiberationSans-30" d="M 3309 2203 
Q 3309 1100 2920 518 
Q 2531 -63 1772 -63 
Q 1013 -63 631 515 
Q 250 1094 250 2203 
Q 250 3338 620 3903 
Q 991 4469 1791 4469 
Q 2569 4469 2939 3897 
Q 3309 3325 3309 2203 
z
M 2738 2203 
Q 2738 3156 2517 3584 
Q 2297 4013 1791 4013 
Q 1272 4013 1045 3591 
Q 819 3169 819 2203 
Q 819 1266 1048 831 
Q 1278 397 1778 397 
Q 2275 397 2506 840 
Q 2738 1284 2738 2203 
z
" transform="scale(0.015625)"/>
        <path id="LiberationSans-2e" d="M 584 0 
L 584 684 
L 1194 684 
L 1194 0 
L 584 0 
z
" transform="scale(0.015625)"/>
       </defs>
       <use xlink:href="#LiberationSans-30"/>
       <use xlink:href="#LiberationSans-2e" transform="translate(55.615234 0)"/>
       <use xlink:href="#LiberationSans-30" transform="translate(83.398438 0)"/>
      </g>
     </g>
    </g>
    <g id="ytick_2">
     <g id="line2d_8"/>
     <g id="text_8">
      <!-- 0.2 -->
      <g style="fill: #54585a" transform="translate(35.881063 256.494494) scale(0.1 -0.1)">
       <use xlink:href="#LiberationSans-30"/>
       <use xlink:href="#LiberationSans-2e" transform="translate(55.615234 0)"/>
       <use xlink:href="#LiberationSans-32" transform="translate(83.398438 0)"/>
      </g>
     </g>
    </g>
    <g id="ytick_3">
     <g id="line2d_9"/>
     <g id="text_9">
      <!-- 0.4 -->
      <g style="fill: #54585a" transform="translate(35.881063 227.348894) scale(0.1 -0.1)">
       <defs>
        <path id="LiberationSans-34" d="M 2753 997 
L 2753 0 
L 2222 0 
L 2222 997 
L 147 997 
L 147 1434 
L 2163 4403 
L 2753 4403 
L 2753 1441 
L 3372 1441 
L 3372 997 
L 2753 997 
z
M 2222 3769 
Q 2216 3750 2134 3603 
Q 2053 3456 2013 3397 
L 884 1734 
L 716 1503 
L 666 1441 
L 2222 1441 
L 2222 3769 
z
" transform="scale(0.015625)"/>
       </defs>
       <use xlink:href="#LiberationSans-30"/>
       <use xlink:href="#LiberationSans-2e" transform="translate(55.615234 0)"/>
       <use xlink:href="#LiberationSans-34" transform="translate(83.398438 0)"/>
      </g>
     </g>
    </g>
    <g id="ytick_4">
     <g id="line2d_10"/>
     <g id="text_10">
      <!-- 0.6 -->
      <g style="fill: #54585a" transform="translate(35.881063 198.203294) scale(0.1 -0.1)">
       <defs>
        <path id="LiberationSans-36" d="M 3278 1441 
Q 3278 744 2900 340 
Q 2522 -63 1856 -63 
Q 1113 -63 719 490 
Q 325 1044 325 2100 
Q 325 3244 734 3856 
Q 1144 4469 1900 4469 
Q 2897 4469 3156 3572 
L 2619 3475 
Q 2453 4013 1894 4013 
Q 1413 4013 1148 3564 
Q 884 3116 884 2266 
Q 1038 2550 1316 2698 
Q 1594 2847 1953 2847 
Q 2563 2847 2920 2465 
Q 3278 2084 3278 1441 
z
M 2706 1416 
Q 2706 1894 2472 2153 
Q 2238 2413 1819 2413 
Q 1425 2413 1183 2183 
Q 941 1953 941 1550 
Q 941 1041 1192 716 
Q 1444 391 1838 391 
Q 2244 391 2475 664 
Q 2706 938 2706 1416 
z
" transform="scale(0.015625)"/>
       </defs>
       <use xlink:href="#LiberationSans-30"/>
       <use xlink:href="#LiberationSans-2e" transform="translate(55.615234 0)"/>
       <use xlink:href="#LiberationSans-36" transform="translate(83.398438 0)"/>
      </g>
     </g>
    </g>
    <g id="ytick_5">
     <g id="line2d_11"/>
     <g id="text_11">
      <!-- 0.8 -->
      <g style="fill: #54585a" transform="translate(35.881063 169.057694) scale(0.1 -0.1)">
       <defs>
        <path id="LiberationSans-38" d="M 3281 1228 
Q 3281 619 2893 278 
Q 2506 -63 1781 -63 
Q 1075 -63 676 271 
Q 278 606 278 1222 
Q 278 1653 525 1947 
Q 772 2241 1156 2303 
L 1156 2316 
Q 797 2400 589 2681 
Q 381 2963 381 3341 
Q 381 3844 757 4156 
Q 1134 4469 1769 4469 
Q 2419 4469 2795 4162 
Q 3172 3856 3172 3334 
Q 3172 2956 2962 2675 
Q 2753 2394 2391 2322 
L 2391 2309 
Q 2813 2241 3047 1952 
Q 3281 1663 3281 1228 
z
M 2588 3303 
Q 2588 4050 1769 4050 
Q 1372 4050 1164 3862 
Q 956 3675 956 3303 
Q 956 2925 1170 2726 
Q 1384 2528 1775 2528 
Q 2172 2528 2380 2711 
Q 2588 2894 2588 3303 
z
M 2697 1281 
Q 2697 1691 2453 1898 
Q 2209 2106 1769 2106 
Q 1341 2106 1100 1882 
Q 859 1659 859 1269 
Q 859 359 1788 359 
Q 2247 359 2472 579 
Q 2697 800 2697 1281 
z
" transform="scale(0.015625)"/>
       </defs>
       <use xlink:href="#LiberationSans-30"/>
       <use xlink:href="#LiberationSans-2e" transform="translate(55.615234 0)"/>
       <use xlink:href="#LiberationSans-38" transform="translate(83.398438 0)"/>
      </g>
     </g>
    </g>
    <g id="ytick_6">
     <g id="line2d_12"/>
     <g id="text_12">
      <!-- 1.0 -->
      <g style="fill: #54585a" transform="translate(35.881063 139.912094) scale(0.1 -0.1)">
       <use xlink:href="#LiberationSans-31"/>
       <use xlink:href="#LiberationSans-2e" transform="translate(55.615234 0)"/>
       <use xlink:href="#LiberationSans-30" transform="translate(83.398438 0)"/>
      </g>
     </g>
    </g>
    <g id="ytick_7">
     <g id="line2d_13"/>
     <g id="text_13">
      <!-- 1.2 -->
      <g style="fill: #54585a" transform="translate(35.881063 110.766494) scale(0.1 -0.1)">
       <use xlink:href="#LiberationSans-31"/>
       <use xlink:href="#LiberationSans-2e" transform="translate(55.615234 0)"/>
       <use xlink:href="#LiberationSans-32" transform="translate(83.398438 0)"/>
      </g>
     </g>
    </g>
    <g id="ytick_8">
     <g id="line2d_14"/>
     <g id="text_14">
      <!-- 1.4 -->
      <g style="fill: #54585a" transform="translate(35.881063 81.620894) scale(0.1 -0.1)">
       <use xlink:href="#LiberationSans-31"/>
       <use xlink:href="#LiberationSans-2e" transform="translate(55.615234 0)"/>
       <use xlink:href="#LiberationSans-34" transform="translate(83.398438 0)"/>
      </g>
     </g>
    </g>
    <g id="ytick_9">
     <g id="line2d_15"/>
     <g id="text_15">
      <!-- 1.6 -->
      <g style="fill: #54585a" transform="translate(35.881063 52.475294) scale(0.1 -0.1)">
       <use xlink:href="#LiberationSans-31"/>
       <use xlink:href="#LiberationSans-2e" transform="translate(55.615234 0)"/>
       <use xlink:href="#LiberationSans-36" transform="translate(83.398438 0)"/>
      </g>
     </g>
    </g>
    <g id="text_16">
     <!-- prediction error -->
     <g style="fill: #2a2d2e" transform="translate(15.180937 198.214109) rotate(-90) scale(0.13 -0.13)">
      <defs>
       <path id="LiberationSans-70" d="M 3291 1706 
Q 3291 -63 2047 -63 
Q 1266 -63 997 525 
L 981 525 
Q 994 500 994 -6 
L 994 -1328 
L 431 -1328 
L 431 2691 
Q 431 3213 413 3381 
L 956 3381 
Q 959 3369 965 3292 
Q 972 3216 980 3056 
Q 988 2897 988 2838 
L 1000 2838 
Q 1150 3150 1397 3295 
Q 1644 3441 2047 3441 
Q 2672 3441 2981 3022 
Q 3291 2603 3291 1706 
z
M 2700 1694 
Q 2700 2400 2509 2703 
Q 2319 3006 1903 3006 
Q 1569 3006 1380 2865 
Q 1191 2725 1092 2426 
Q 994 2128 994 1650 
Q 994 984 1206 668 
Q 1419 353 1897 353 
Q 2316 353 2508 661 
Q 2700 969 2700 1694 
z
" transform="scale(0.015625)"/>
       <path id="LiberationSans-64" d="M 2566 544 
Q 2409 219 2151 78 
Q 1894 -63 1513 -63 
Q 872 -63 570 368 
Q 269 800 269 1675 
Q 269 3444 1513 3444 
Q 1897 3444 2153 3303 
Q 2409 3163 2566 2856 
L 2572 2856 
L 2566 3234 
L 2566 4638 
L 3128 4638 
L 3128 697 
Q 3128 169 3147 0 
L 2609 0 
Q 2600 50 2589 231 
Q 2578 413 2578 544 
L 2566 544 
z
M 859 1694 
Q 859 984 1046 678 
Q 1234 372 1656 372 
Q 2134 372 2350 703 
Q 2566 1034 2566 1731 
Q 2566 2403 2350 2715 
Q 2134 3028 1663 3028 
Q 1238 3028 1048 2714 
Q 859 2400 859 1694 
z
" transform="scale(0.015625)"/>
      </defs>
      <use xlink:href="#LiberationSans-70"/>
      <use xlink:href="#LiberationSans-72" transform="translate(55.615234 0)"/>
      <use xlink:href="#LiberationSans-65" transform="translate(88.916016 0)"/>
      <use xlink:href="#LiberationSans-64" transform="translate(144.53125 0)"/>
      <use xlink:href="#LiberationSans-69" transform="translate(200.146484 0)"/>
      <use xlink:href="#LiberationSans-63" transform="translate(222.363281 0)"/>
      <use xlink:href="#LiberationSans-74" transform="translate(272.363281 0)"/>
      <use xlink:href="#LiberationSans-69" transform="translate(300.146484 0)"/>
      <use xlink:href="#LiberationSans-6f" transform="translate(322.363281 0)"/>
      <use xlink:href="#LiberationSans-6e" transform="translate(377.978516 0)"/>
      <use xlink:href="#LiberationSans-20" transform="translate(433.59375 0)"/>
      <use xlink:href="#LiberationSans-65" transform="translate(461.376953 0)"/>
      <use xlink:href="#LiberationSans-72" transform="translate(516.992188 0)"/>
      <use xlink:href="#LiberationSans-72" transform="translate(550.292969 0)"/>
      <use xlink:href="#LiberationSans-6f" transform="translate(583.59375 0)"/>
      <use xlink:href="#LiberationSans-72" transform="translate(639.208984 0)"/>
     </g>
     <!-- (relative to its own average) -->
     <g style="fill: #2a2d2e" transform="translate(29.183563 234.339891) rotate(-90) scale(0.13 -0.13)">
      <defs>
       <path id="LiberationSans-28" d="M 397 1663 
Q 397 2566 680 3284 
Q 963 4003 1550 4638 
L 2094 4638 
Q 1509 3988 1236 3256 
Q 963 2525 963 1656 
Q 963 791 1233 62 
Q 1503 -666 2094 -1325 
L 1550 -1325 
Q 959 -688 678 32 
Q 397 753 397 1650 
L 397 1663 
z
" transform="scale(0.015625)"/>
       <path id="LiberationSans-6c" d="M 431 0 
L 431 4638 
L 994 4638 
L 994 0 
L 431 0 
z
" transform="scale(0.015625)"/>
       <path id="LiberationSans-76" d="M 1916 0 
L 1250 0 
L 22 3381 
L 622 3381 
L 1366 1181 
Q 1406 1056 1581 441 
L 1691 806 
L 1813 1175 
L 2581 3381 
L 3178 3381 
L 1916 0 
z
" transform="scale(0.015625)"/>
       <path id="LiberationSans-29" d="M 1734 1650 
Q 1734 747 1451 28 
Q 1169 -691 581 -1325 
L 38 -1325 
Q 625 -669 897 57 
Q 1169 784 1169 1656 
Q 1169 2528 895 3256 
Q 622 3984 38 4638 
L 581 4638 
Q 1172 4000 1453 3279 
Q 1734 2559 1734 1663 
L 1734 1650 
z
" transform="scale(0.015625)"/>
      </defs>
      <use xlink:href="#LiberationSans-28"/>
      <use xlink:href="#LiberationSans-72" transform="translate(33.300781 0)"/>
      <use xlink:href="#LiberationSans-65" transform="translate(66.601562 0)"/>
      <use xlink:href="#LiberationSans-6c" transform="translate(122.216797 0)"/>
      <use xlink:href="#LiberationSans-61" transform="translate(144.433594 0)"/>
      <use xlink:href="#LiberationSans-74" transform="translate(200.048828 0)"/>
      <use xlink:href="#LiberationSans-69" transform="translate(227.832031 0)"/>
      <use xlink:href="#LiberationSans-76" transform="translate(250.048828 0)"/>
      <use xlink:href="#LiberationSans-65" transform="translate(300.048828 0)"/>
      <use xlink:href="#LiberationSans-20" transform="translate(355.664062 0)"/>
      <use xlink:href="#LiberationSans-74" transform="translate(383.447266 0)"/>
      <use xlink:href="#LiberationSans-6f" transform="translate(411.230469 0)"/>
      <use xlink:href="#LiberationSans-20" transform="translate(466.845703 0)"/>
      <use xlink:href="#LiberationSans-69" transform="translate(494.628906 0)"/>
      <use xlink:href="#LiberationSans-74" transform="translate(516.845703 0)"/>
      <use xlink:href="#LiberationSans-73" transform="translate(544.628906 0)"/>
      <use xlink:href="#LiberationSans-20" transform="translate(594.628906 0)"/>
      <use xlink:href="#LiberationSans-6f" transform="translate(622.412109 0)"/>
      <use xlink:href="#LiberationSans-77" transform="translate(678.027344 0)"/>
      <use xlink:href="#LiberationSans-6e" transform="translate(750.244141 0)"/>
      <use xlink:href="#LiberationSans-20" transform="translate(805.859375 0)"/>
      <use xlink:href="#LiberationSans-61" transform="translate(833.642578 0)"/>
      <use xlink:href="#LiberationSans-76" transform="translate(889.257812 0)"/>
      <use xlink:href="#LiberationSans-65" transform="translate(939.257812 0)"/>
      <use xlink:href="#LiberationSans-72" transform="translate(994.873047 0)"/>
      <use xlink:href="#LiberationSans-61" transform="translate(1028.173828 0)"/>
      <use xlink:href="#LiberationSans-67" transform="translate(1083.789062 0)"/>
      <use xlink:href="#LiberationSans-65" transform="translate(1139.404297 0)"/>
      <use xlink:href="#LiberationSans-29" transform="translate(1195.019531 0)"/>
     </g>
    </g>
   </g>
   <g id="line2d_16">
    <path d="M 223.471062 282.016656 
L 223.471062 26.992656 
" clip-path="url(#p2ce15eee57)" style="fill: none; stroke-dasharray: 2,3; stroke-dashoffset: 0; stroke: #2a2d2e"/>
   </g>
   <g id="patch_3">
    <path d="M 53.281063 282.016656 
L 53.281063 26.992656 
" style="fill: none; stroke: #54585a; stroke-width: 1.1; stroke-linejoin: miter; stroke-linecap: square"/>
   </g>
   <g id="patch_4">
    <path d="M 53.281062 282.016656 
L 393.661062 282.016656 
" style="fill: none; stroke: #54585a; stroke-width: 1.1; stroke-linejoin: miter; stroke-linecap: square"/>
   </g>
   <g id="line2d_17">
    <path d="M 68.752881 100.033232 
L 146.111972 161.5553 
L 223.471062 207.004999 
L 300.830153 165.189139 
L 378.189244 56.113771 
" clip-path="url(#p2ce15eee57)" style="fill: none; stroke: #cc0633; stroke-width: 3.2; stroke-linecap: round"/>
   </g>
   <g id="text_17">
    <!-- lowest error exactly at the truth → it obeys -->
    <g style="fill: #cc0633" transform="translate(102.1145 43.339626) scale(0.12 -0.12)">
     <defs>
      <path id="LiberationSans-BoldItalic-6c" d="M 109 0 
L 1009 4638 
L 1888 4638 
L 984 0 
L 109 0 
z
" transform="scale(0.015625)"/>
      <path id="LiberationSans-BoldItalic-6f" d="M 3703 2134 
Q 3703 1488 3448 984 
Q 3194 481 2726 209 
Q 2259 -63 1672 -63 
Q 991 -63 594 304 
Q 197 672 197 1309 
Q 197 1938 445 2422 
Q 694 2906 1153 3173 
Q 1613 3441 2200 3441 
Q 2934 3441 3318 3098 
Q 3703 2756 3703 2134 
z
M 2784 2069 
Q 2784 2841 2134 2841 
Q 1778 2841 1567 2653 
Q 1356 2466 1237 2083 
Q 1119 1700 1119 1347 
Q 1119 538 1769 538 
Q 2119 538 2323 714 
Q 2528 891 2645 1250 
Q 2763 1609 2784 2069 
z
" transform="scale(0.015625)"/>
      <path id="LiberationSans-BoldItalic-77" d="M 3772 0 
L 2844 0 
L 2709 2063 
L 2694 2781 
Q 2528 2338 2397 2056 
L 1453 0 
L 525 0 
L 309 3381 
L 1116 3381 
L 1159 1206 
L 1159 797 
L 1244 1009 
L 1406 1394 
L 2325 3381 
L 3266 3381 
L 3397 1394 
L 3413 797 
L 3578 1209 
L 4488 3381 
L 5319 3381 
L 3772 0 
z
" transform="scale(0.015625)"/>
      <path id="LiberationSans-BoldItalic-65" d="M 1119 1488 
Q 1097 1369 1097 1209 
Q 1097 878 1242 701 
Q 1388 525 1672 525 
Q 2131 525 2338 1053 
L 3103 822 
Q 2869 325 2522 131 
Q 2175 -63 1613 -63 
Q 947 -63 572 298 
Q 197 659 197 1306 
Q 197 1953 422 2439 
Q 647 2925 1061 3184 
Q 1475 3444 2019 3444 
Q 2672 3444 3026 3108 
Q 3381 2772 3381 2159 
Q 3381 1850 3306 1488 
L 1119 1488 
z
M 2569 2072 
L 2578 2247 
Q 2578 2581 2423 2734 
Q 2269 2888 2019 2888 
Q 1719 2888 1514 2680 
Q 1309 2472 1222 2072 
L 2569 2072 
z
" transform="scale(0.015625)"/>
      <path id="LiberationSans-BoldItalic-73" d="M 3125 1044 
Q 3125 500 2723 218 
Q 2322 -63 1553 -63 
Q 925 -63 562 159 
Q 200 381 72 847 
L 856 959 
Q 922 725 1097 622 
Q 1272 519 1616 519 
Q 1956 519 2132 628 
Q 2309 738 2309 944 
Q 2309 1106 2179 1192 
Q 2050 1278 1609 1372 
Q 988 1513 733 1761 
Q 478 2009 478 2403 
Q 478 2903 870 3168 
Q 1263 3434 1991 3434 
Q 2634 3434 2950 3214 
Q 3266 2994 3341 2534 
L 2556 2444 
Q 2503 2659 2350 2756 
Q 2197 2853 1931 2853 
Q 1291 2853 1291 2478 
Q 1291 2375 1353 2306 
Q 1416 2238 1531 2188 
Q 1647 2138 2088 2034 
Q 2656 1906 2890 1668 
Q 3125 1431 3125 1044 
z
" transform="scale(0.015625)"/>
      <path id="LiberationSans-BoldItalic-74" d="M 1175 -50 
Q 788 -50 575 133 
Q 363 316 363 653 
Q 363 875 413 1144 
L 731 2788 
L 269 2788 
L 384 3381 
L 891 3381 
L 1319 4175 
L 1869 4175 
L 1719 3381 
L 2350 3381 
L 2241 2788 
L 1600 2788 
L 1275 1116 
Q 1241 941 1241 838 
Q 1241 694 1314 623 
Q 1388 553 1513 553 
Q 1613 553 1850 594 
L 1750 25 
Q 1497 -50 1175 -50 
z
" transform="scale(0.015625)"/>
      <path id="LiberationSans-BoldItalic-20" transform="scale(0.015625)"/>
      <path id="LiberationSans-BoldItalic-72" d="M 2638 2666 
Q 2422 2713 2281 2713 
Q 1897 2713 1655 2441 
Q 1413 2169 1303 1606 
L 988 0 
L 109 0 
L 613 2594 
Q 688 2969 744 3381 
L 1581 3381 
L 1513 2844 
L 1488 2691 
L 1500 2691 
Q 1728 3109 1950 3276 
Q 2172 3444 2459 3444 
Q 2606 3444 2781 3400 
L 2638 2666 
z
" transform="scale(0.015625)"/>
      <path id="LiberationSans-BoldItalic-78" d="M 2263 0 
L 1681 1197 
L 659 0 
L -281 0 
L 1306 1756 
L 434 3381 
L 1347 3381 
L 1888 2297 
L 2813 3381 
L 3775 3381 
L 2266 1741 
L 3184 0 
L 2263 0 
z
" transform="scale(0.015625)"/>
      <path id="LiberationSans-BoldItalic-61" d="M 2788 -31 
Q 2475 -31 2306 100 
Q 2138 231 2138 447 
Q 2138 563 2153 647 
L 2134 647 
Q 1872 241 1615 89 
Q 1359 -63 991 -63 
Q 553 -63 292 198 
Q 31 459 31 869 
Q 31 1447 429 1742 
Q 828 2038 1722 2053 
L 2319 2063 
Q 2384 2359 2384 2472 
Q 2384 2872 1988 2872 
Q 1694 2872 1550 2758 
Q 1406 2644 1353 2428 
L 531 2525 
Q 638 2975 1011 3209 
Q 1384 3444 2003 3444 
Q 2650 3444 2951 3216 
Q 3253 2988 3253 2522 
Q 3253 2406 3178 2031 
L 2956 928 
Q 2931 788 2931 703 
Q 2931 628 2962 587 
Q 2994 547 3034 528 
Q 3075 509 3115 504 
Q 3156 500 3178 500 
Q 3272 500 3372 522 
L 3328 38 
Q 3197 -13 3062 -22 
Q 2928 -31 2788 -31 
z
M 2222 1572 
L 1716 1572 
Q 1350 1566 1139 1422 
Q 928 1278 928 1016 
Q 928 797 1051 673 
Q 1175 550 1384 550 
Q 1644 550 1856 751 
Q 2069 953 2153 1284 
L 2222 1572 
z
" transform="scale(0.015625)"/>
      <path id="LiberationSans-BoldItalic-63" d="M 1675 541 
Q 1934 541 2103 705 
Q 2272 869 2372 1191 
L 3219 1034 
Q 2884 -63 1625 -63 
Q 938 -63 567 289 
Q 197 641 197 1266 
Q 197 1875 444 2409 
Q 691 2944 1102 3194 
Q 1513 3444 2125 3444 
Q 2716 3444 3069 3145 
Q 3422 2847 3466 2316 
L 2578 2244 
Q 2544 2841 2056 2841 
Q 1722 2841 1533 2611 
Q 1344 2381 1191 1797 
Q 1119 1438 1119 1272 
Q 1119 541 1675 541 
z
" transform="scale(0.015625)"/>
      <path id="LiberationSans-BoldItalic-79" d="M 275 -1328 
Q -28 -1328 -266 -1272 
L -147 -659 
Q -22 -688 125 -688 
Q 369 -688 555 -544 
Q 741 -400 925 -75 
L 1013 75 
L 350 3381 
L 1259 3381 
L 1481 1828 
Q 1509 1688 1550 1272 
Q 1591 866 1591 797 
Q 1591 788 1591 784 
L 1644 900 
L 2078 1816 
L 2888 3381 
L 3825 3381 
L 1781 -178 
Q 1447 -700 1236 -912 
Q 1025 -1125 795 -1226 
Q 566 -1328 275 -1328 
z
" transform="scale(0.015625)"/>
      <path id="LiberationSans-BoldItalic-68" d="M 1878 4638 
L 1631 3372 
L 1509 2803 
L 1519 2803 
Q 1753 3128 2036 3284 
Q 2319 3441 2684 3441 
Q 3159 3441 3400 3212 
Q 3641 2984 3641 2553 
Q 3641 2475 3619 2304 
Q 3597 2134 3575 2041 
L 3178 0 
L 2306 0 
L 2675 1859 
Q 2756 2247 2756 2375 
Q 2756 2778 2281 2778 
Q 1966 2778 1697 2522 
Q 1428 2266 1359 1894 
L 991 0 
L 109 0 
L 1003 4638 
L 1878 4638 
z
" transform="scale(0.015625)"/>
      <path id="LiberationSans-BoldItalic-75" d="M 1600 3381 
L 1231 1522 
Q 1150 1138 1150 1006 
Q 1150 603 1625 603 
Q 1941 603 2208 856 
Q 2475 1109 2547 1488 
L 2916 3381 
L 3797 3381 
L 3278 722 
Q 3228 475 3159 0 
L 2322 0 
Q 2322 28 2351 262 
Q 2381 497 2397 578 
L 2388 578 
Q 2150 244 1867 92 
Q 1584 -59 1222 -59 
Q 747 -59 506 169 
Q 266 397 266 828 
Q 266 906 287 1079 
Q 309 1253 331 1341 
L 728 3381 
L 1600 3381 
z
" transform="scale(0.015625)"/>
      <path id="LiberationSans-BoldItalic-2192" d="M 4397 1197 
Q 4219 1406 4025 1813 
L 4250 1813 
Q 4647 1347 5094 1119 
L 5094 1006 
Q 4647 778 4250 313 
L 4025 313 
Q 4219 719 4397 928 
L 1306 928 
L 1306 1197 
L 4397 1197 
z
" transform="scale(0.015625)"/>
      <path id="LiberationSans-BoldItalic-69" d="M 881 3991 
L 1009 4638 
L 1888 4638 
L 1759 3991 
L 881 3991 
z
M 109 0 
L 766 3381 
L 1644 3381 
L 984 0 
L 109 0 
z
" transform="scale(0.015625)"/>
      <path id="LiberationSans-BoldItalic-62" d="M 2672 3444 
Q 3169 3444 3447 3148 
Q 3725 2853 3725 2338 
L 3725 2294 
Q 3725 1706 3531 1107 
Q 3338 509 2986 223 
Q 2634 -63 2091 -63 
Q 1700 -63 1456 100 
Q 1213 263 1113 556 
L 1106 556 
L 1019 209 
L 956 0 
L 109 0 
Q 125 47 170 256 
Q 216 466 263 697 
L 1031 4638 
L 1909 4638 
L 1647 3303 
Q 1559 2853 1547 2853 
L 1559 2853 
Q 1734 3116 2014 3280 
Q 2294 3444 2672 3444 
z
M 2297 2834 
Q 1903 2834 1667 2559 
Q 1431 2284 1325 1731 
Q 1272 1441 1272 1253 
Q 1272 919 1437 730 
Q 1603 541 1900 541 
Q 2216 541 2394 736 
Q 2572 931 2690 1398 
Q 2809 1866 2809 2169 
Q 2809 2497 2698 2665 
Q 2588 2834 2297 2834 
z
" transform="scale(0.015625)"/>
     </defs>
     <use xlink:href="#LiberationSans-BoldItalic-6c"/>
     <use xlink:href="#LiberationSans-BoldItalic-6f" transform="translate(27.783203 0)"/>
     <use xlink:href="#LiberationSans-BoldItalic-77" transform="translate(88.867188 0)"/>
     <use xlink:href="#LiberationSans-BoldItalic-65" transform="translate(166.650391 0)"/>
     <use xlink:href="#LiberationSans-BoldItalic-73" transform="translate(222.265625 0)"/>
     <use xlink:href="#LiberationSans-BoldItalic-74" transform="translate(277.880859 0)"/>
     <use xlink:href="#LiberationSans-BoldItalic-20" transform="translate(311.181641 0)"/>
     <use xlink:href="#LiberationSans-BoldItalic-65" transform="translate(338.964844 0)"/>
     <use xlink:href="#LiberationSans-BoldItalic-72" transform="translate(394.580078 0)"/>
     <use xlink:href="#LiberationSans-BoldItalic-72" transform="translate(433.496094 0)"/>
     <use xlink:href="#LiberationSans-BoldItalic-6f" transform="translate(472.412109 0)"/>
     <use xlink:href="#LiberationSans-BoldItalic-72" transform="translate(533.496094 0)"/>
     <use xlink:href="#LiberationSans-BoldItalic-20" transform="translate(572.412109 0)"/>
     <use xlink:href="#LiberationSans-BoldItalic-65" transform="translate(600.195312 0)"/>
     <use xlink:href="#LiberationSans-BoldItalic-78" transform="translate(655.810547 0)"/>
     <use xlink:href="#LiberationSans-BoldItalic-61" transform="translate(711.425781 0)"/>
     <use xlink:href="#LiberationSans-BoldItalic-63" transform="translate(767.041016 0)"/>
     <use xlink:href="#LiberationSans-BoldItalic-74" transform="translate(822.65625 0)"/>
     <use xlink:href="#LiberationSans-BoldItalic-6c" transform="translate(855.957031 0)"/>
     <use xlink:href="#LiberationSans-BoldItalic-79" transform="translate(883.740234 0)"/>
     <use xlink:href="#LiberationSans-BoldItalic-20" transform="translate(939.355469 0)"/>
     <use xlink:href="#LiberationSans-BoldItalic-61" transform="translate(967.138672 0)"/>
     <use xlink:href="#LiberationSans-BoldItalic-74" transform="translate(1022.753906 0)"/>
     <use xlink:href="#LiberationSans-BoldItalic-20" transform="translate(1056.054688 0)"/>
     <use xlink:href="#LiberationSans-BoldItalic-74" transform="translate(1083.837891 0)"/>
     <use xlink:href="#LiberationSans-BoldItalic-68" transform="translate(1117.138672 0)"/>
     <use xlink:href="#LiberationSans-BoldItalic-65" transform="translate(1178.222656 0)"/>
     <use xlink:href="#LiberationSans-BoldItalic-20" transform="translate(1233.837891 0)"/>
     <use xlink:href="#LiberationSans-BoldItalic-74" transform="translate(1261.621094 0)"/>
     <use xlink:href="#LiberationSans-BoldItalic-72" transform="translate(1294.921875 0)"/>
     <use xlink:href="#LiberationSans-BoldItalic-75" transform="translate(1333.837891 0)"/>
     <use xlink:href="#LiberationSans-BoldItalic-74" transform="translate(1394.921875 0)"/>
     <use xlink:href="#LiberationSans-BoldItalic-68" transform="translate(1428.222656 0)"/>
     <use xlink:href="#LiberationSans-BoldItalic-20" transform="translate(1489.306641 0)"/>
     <use xlink:href="#LiberationSans-BoldItalic-2192" transform="translate(1517.089844 0)"/>
     <use xlink:href="#LiberationSans-BoldItalic-20" transform="translate(1617.089844 0)"/>
     <use xlink:href="#LiberationSans-BoldItalic-69" transform="translate(1644.873047 0)"/>
     <use xlink:href="#LiberationSans-BoldItalic-74" transform="translate(1672.65625 0)"/>
     <use xlink:href="#LiberationSans-BoldItalic-20" transform="translate(1705.957031 0)"/>
     <use xlink:href="#LiberationSans-BoldItalic-6f" transform="translate(1733.740234 0)"/>
     <use xlink:href="#LiberationSans-BoldItalic-62" transform="translate(1794.824219 0)"/>
     <use xlink:href="#LiberationSans-BoldItalic-65" transform="translate(1855.908203 0)"/>
     <use xlink:href="#LiberationSans-BoldItalic-79" transform="translate(1911.523438 0)"/>
     <use xlink:href="#LiberationSans-BoldItalic-73" transform="translate(1967.138672 0)"/>
    </g>
   </g>
   <g id="text_18">
    <!-- Fixed model -->
    <g style="fill: #2a2d2e" transform="translate(178.257078 16.992656) scale(0.155 -0.155)">
     <defs>
      <path id="LiberationSans-Bold-46" d="M 1350 3691 
L 1350 2328 
L 3603 2328 
L 3603 1616 
L 1350 1616 
L 1350 0 
L 428 0 
L 428 4403 
L 3675 4403 
L 3675 3691 
L 1350 3691 
z
" transform="scale(0.015625)"/>
      <path id="LiberationSans-Bold-69" d="M 447 3991 
L 447 4638 
L 1325 4638 
L 1325 3991 
L 447 3991 
z
M 447 0 
L 447 3381 
L 1325 3381 
L 1325 0 
L 447 0 
z
" transform="scale(0.015625)"/>
      <path id="LiberationSans-Bold-78" d="M 2559 0 
L 1772 1225 
L 978 0 
L 44 0 
L 1281 1747 
L 103 3381 
L 1050 3381 
L 1772 2275 
L 2491 3381 
L 3444 3381 
L 2266 1756 
L 3513 0 
L 2559 0 
z
" transform="scale(0.015625)"/>
      <path id="LiberationSans-Bold-65" d="M 1831 -63 
Q 1069 -63 659 389 
Q 250 841 250 1706 
Q 250 2544 665 2994 
Q 1081 3444 1844 3444 
Q 2572 3444 2956 2961 
Q 3341 2478 3341 1547 
L 3341 1522 
L 1172 1522 
Q 1172 1028 1355 776 
Q 1538 525 1875 525 
Q 2341 525 2463 928 
L 3291 856 
Q 2931 -63 1831 -63 
z
M 1831 2891 
Q 1522 2891 1355 2675 
Q 1188 2459 1178 2072 
L 2491 2072 
Q 2466 2481 2294 2686 
Q 2122 2891 1831 2891 
z
" transform="scale(0.015625)"/>
      <path id="LiberationSans-Bold-64" d="M 2638 0 
Q 2625 47 2608 236 
Q 2591 425 2591 550 
L 2578 550 
Q 2294 -63 1497 -63 
Q 906 -63 584 398 
Q 263 859 263 1688 
Q 263 2528 602 2986 
Q 941 3444 1563 3444 
Q 1922 3444 2183 3294 
Q 2444 3144 2584 2847 
L 2591 2847 
L 2584 3403 
L 2584 4638 
L 3463 4638 
L 3463 738 
Q 3463 425 3488 0 
L 2638 0 
z
M 2597 1709 
Q 2597 2256 2414 2551 
Q 2231 2847 1875 2847 
Q 1522 2847 1350 2561 
Q 1178 2275 1178 1688 
Q 1178 538 1869 538 
Q 2216 538 2406 842 
Q 2597 1147 2597 1709 
z
" transform="scale(0.015625)"/>
      <path id="LiberationSans-Bold-20" transform="scale(0.015625)"/>
      <path id="LiberationSans-Bold-6d" d="M 2438 0 
L 2438 1897 
Q 2438 2788 1925 2788 
Q 1659 2788 1492 2516 
Q 1325 2244 1325 1813 
L 1325 0 
L 447 0 
L 447 2625 
Q 447 2897 439 3070 
Q 431 3244 422 3381 
L 1259 3381 
Q 1269 3322 1284 3064 
Q 1300 2806 1300 2709 
L 1313 2709 
Q 1475 3097 1717 3272 
Q 1959 3447 2297 3447 
Q 3072 3447 3238 2709 
L 3256 2709 
Q 3428 3103 3668 3275 
Q 3909 3447 4281 3447 
Q 4775 3447 5034 3111 
Q 5294 2775 5294 2147 
L 5294 0 
L 4422 0 
L 4422 1897 
Q 4422 2788 3909 2788 
Q 3653 2788 3489 2539 
Q 3325 2291 3309 1853 
L 3309 0 
L 2438 0 
z
" transform="scale(0.015625)"/>
      <path id="LiberationSans-Bold-6f" d="M 3659 1694 
Q 3659 872 3203 404 
Q 2747 -63 1941 -63 
Q 1150 -63 700 406 
Q 250 875 250 1694 
Q 250 2509 700 2976 
Q 1150 3444 1959 3444 
Q 2788 3444 3223 2992 
Q 3659 2541 3659 1694 
z
M 2741 1694 
Q 2741 2297 2544 2569 
Q 2347 2841 1972 2841 
Q 1172 2841 1172 1694 
Q 1172 1128 1367 833 
Q 1563 538 1931 538 
Q 2741 538 2741 1694 
z
" transform="scale(0.015625)"/>
      <path id="LiberationSans-Bold-6c" d="M 447 0 
L 447 4638 
L 1325 4638 
L 1325 0 
L 447 0 
z
" transform="scale(0.015625)"/>
     </defs>
     <use xlink:href="#LiberationSans-Bold-46"/>
     <use xlink:href="#LiberationSans-Bold-69" transform="translate(61.083984 0)"/>
     <use xlink:href="#LiberationSans-Bold-78" transform="translate(88.867188 0)"/>
     <use xlink:href="#LiberationSans-Bold-65" transform="translate(144.482422 0)"/>
     <use xlink:href="#LiberationSans-Bold-64" transform="translate(200.097656 0)"/>
     <use xlink:href="#LiberationSans-Bold-20" transform="translate(261.181641 0)"/>
     <use xlink:href="#LiberationSans-Bold-6d" transform="translate(288.964844 0)"/>
     <use xlink:href="#LiberationSans-Bold-6f" transform="translate(377.880859 0)"/>
     <use xlink:href="#LiberationSans-Bold-64" transform="translate(438.964844 0)"/>
     <use xlink:href="#LiberationSans-Bold-65" transform="translate(500.048828 0)"/>
     <use xlink:href="#LiberationSans-Bold-6c" transform="translate(555.664062 0)"/>
    </g>
   </g>
   <g id="PathCollection_1">
    <defs>
     <path id="m2bfaa7f14f" d="M 0 7.245688 
C 1.921579 7.245688 3.764714 6.482237 5.123475 5.123475 
C 6.482237 3.764714 7.245688 1.921579 7.245688 0 
C 7.245688 -1.921579 6.482237 -3.764714 5.123475 -5.123475 
C 3.764714 -6.482237 1.921579 -7.245688 0 -7.245688 
C -1.921579 -7.245688 -3.764714 -6.482237 -5.123475 -5.123475 
C -6.482237 -3.764714 -7.245688 -1.921579 -7.245688 0 
C -7.245688 1.921579 -6.482237 3.764714 -5.123475 5.123475 
C -3.764714 6.482237 -1.921579 7.245688 0 7.245688 
z
" style="stroke: #ffffff; stroke-width: 2.2"/>
    </defs>
    <g clip-path="url(#p2ce15eee57)">
     <use xlink:href="#m2bfaa7f14f" x="223.471062" y="207.004999" style="fill: #cc0633; stroke: #ffffff; stroke-width: 2.2"/>
    </g>
   </g>
  </g>
 </g>
 <defs>
  <clipPath id="p2ce15eee57">
   <rect x="53.281063" y="26.992656" width="340.38" height="255.024"/>
  </clipPath>
 </defs>
</svg>
